<svg xmlns="http://www.w3.org/2000/svg" viewBox="0 0 1600 1000" role="img" aria-hidden="true">
<defs><linearGradient id="g" x1="0" y1="0" x2="1" y2="1">
      <stop offset="0" stop-color="#2b2018"/><stop offset="0.5" stop-color="#8a6a45"/><stop offset="1" stop-color="#11100F"/>
    </linearGradient><radialGradient id="vg" cx="50%" cy="42%" r="75%">
      <stop offset="0%" stop-color="#000" stop-opacity="0"/>
      <stop offset="72%" stop-color="#000" stop-opacity="0"/>
      <stop offset="100%" stop-color="#000" stop-opacity="0.55"/>
    </radialGradient><pattern id="p" width="130" height="130" patternUnits="userSpaceOnUse">
      <circle cx="65" cy="65" r="46" fill="none" stroke="#d6bb88" stroke-opacity=".10"/>
      <circle cx="65" cy="65" r="7" fill="#d6bb88" fill-opacity=".08"/>
    </pattern></defs>
<rect width="1600" height="1000" fill="url(#g)"/>
<rect width="1600" height="1000" fill="url(#p)"/>
<line x1="800.0" y1="200" x2="897.5" y2="200.0" stroke="#d6bb88" stroke-opacity=".22"/><line x1="800.0" y1="200" x2="884.4374768689828" y2="248.75" stroke="#d6bb88" stroke-opacity=".22"/><line x1="800.0" y1="200" x2="848.75" y2="284.43747686898274" stroke="#d6bb88" stroke-opacity=".22"/><line x1="800.0" y1="200" x2="800.0" y2="297.5" stroke="#d6bb88" stroke-opacity=".22"/><line x1="800.0" y1="200" x2="751.25" y2="284.4374768689828" stroke="#d6bb88" stroke-opacity=".22"/><line x1="800.0" y1="200" x2="715.5625231310172" y2="248.75" stroke="#d6bb88" stroke-opacity=".22"/><line x1="800.0" y1="200" x2="702.5" y2="200.0" stroke="#d6bb88" stroke-opacity=".22"/><line x1="800.0" y1="200" x2="715.5625231310172" y2="151.25000000000003" stroke="#d6bb88" stroke-opacity=".22"/><line x1="800.0" y1="200" x2="751.25" y2="115.56252313101726" stroke="#d6bb88" stroke-opacity=".22"/><line x1="800.0" y1="200" x2="800.0" y2="102.5" stroke="#d6bb88" stroke-opacity=".22"/><line x1="800.0" y1="200" x2="848.75" y2="115.56252313101724" stroke="#d6bb88" stroke-opacity=".22"/><line x1="800.0" y1="200" x2="884.4374768689827" y2="151.24999999999994" stroke="#d6bb88" stroke-opacity=".22"/><circle cx="800.0" cy="200" r="97.5" fill="none" stroke="#d6bb88" stroke-width="1.5" stroke-opacity="0.5"/><circle cx="800.0" cy="200" r="61.75" fill="none" stroke="#d6bb88" stroke-width="1.5" stroke-opacity="0.38"/><circle cx="800.0" cy="200" r="29.25" fill="none" stroke="#d6bb88" stroke-width="1.5" stroke-opacity="0.26"/><circle cx="800.0" cy="200" r="39.0" fill="#d6bb88" opacity="0.4"/><circle cx="800.0" cy="200" r="18.2" fill="#24211e"/><ellipse cx="800.0" cy="680" rx="360" ry="70" fill="#24211e" opacity=".55"/><ellipse cx="800.0" cy="650" rx="300" ry="46" fill="#f7f3ec" opacity=".08"/><circle cx="800.0" cy="550" r="70" fill="#d6bb88" opacity="0.45"/><circle cx="800.0" cy="550" r="30" fill="#24211e"/><circle cx="300" cy="220" r="9" fill="#d6bb88" opacity="0.225"/><circle cx="1260" cy="260" r="11" fill="#d6bb88" opacity="0.225"/><circle cx="500" cy="140" r="5" fill="#d6bb88" opacity="0.15"/><circle cx="1080" cy="150" r="6" fill="#d6bb88" opacity="0.15"/>
<rect width="1600" height="1000" fill="url(#vg)"/>
</svg>