<svg xmlns="http://www.w3.org/2000/svg" viewBox="0 0 1600 1000" role="img" aria-hidden="true">
<defs><linearGradient id="g" x1="0" y1="0" x2="1" y2="1">
      <stop offset="0" stop-color="#24211e"/><stop offset="0.5" stop-color="#5c4d38"/><stop offset="1" stop-color="#11100F"/>
    </linearGradient><radialGradient id="vg" cx="50%" cy="42%" r="75%">
      <stop offset="0%" stop-color="#000" stop-opacity="0"/>
      <stop offset="72%" stop-color="#000" stop-opacity="0"/>
      <stop offset="100%" stop-color="#000" stop-opacity="0.55"/>
    </radialGradient><pattern id="p" width="130" height="130" patternUnits="userSpaceOnUse">
      <circle cx="65" cy="65" r="46" fill="none" stroke="#d6bb88" stroke-opacity=".10"/>
      <circle cx="65" cy="65" r="7" fill="#d6bb88" fill-opacity=".08"/>
    </pattern></defs>
<rect width="1600" height="1000" fill="url(#g)"/>
<rect width="1600" height="1000" fill="url(#p)"/>
<g><line x1="228.57142857142858" y1="0" x2="228.57142857142858" y2="620.0" stroke="#d6bb88" stroke-opacity="0.28"/><line x1="457.14285714285717" y1="0" x2="457.14285714285717" y2="620.0" stroke="#d6bb88" stroke-opacity="0.28"/><line x1="685.7142857142858" y1="0" x2="685.7142857142858" y2="620.0" stroke="#d6bb88" stroke-opacity="0.28"/><line x1="914.2857142857143" y1="0" x2="914.2857142857143" y2="620.0" stroke="#d6bb88" stroke-opacity="0.28"/><line x1="1142.857142857143" y1="0" x2="1142.857142857143" y2="620.0" stroke="#d6bb88" stroke-opacity="0.28"/><line x1="1371.4285714285716" y1="0" x2="1371.4285714285716" y2="620.0" stroke="#d6bb88" stroke-opacity="0.28"/><line x1="0" y1="206.66666666666666" x2="1600" y2="206.66666666666666" stroke="#d6bb88" stroke-opacity="0.28"/><line x1="0" y1="413.3333333333333" x2="1600" y2="413.3333333333333" stroke="#d6bb88" stroke-opacity="0.28"/></g><line x1="800.0" y1="260" x2="935.0" y2="260.0" stroke="#d6bb88" stroke-opacity=".22"/><line x1="800.0" y1="260" x2="916.9134295108993" y2="327.5" stroke="#d6bb88" stroke-opacity=".22"/><line x1="800.0" y1="260" x2="867.5" y2="376.9134295108992" stroke="#d6bb88" stroke-opacity=".22"/><line x1="800.0" y1="260" x2="800.0" y2="395.0" stroke="#d6bb88" stroke-opacity=".22"/><line x1="800.0" y1="260" x2="732.5" y2="376.9134295108992" stroke="#d6bb88" stroke-opacity=".22"/><line x1="800.0" y1="260" x2="683.0865704891007" y2="327.5" stroke="#d6bb88" stroke-opacity=".22"/><line x1="800.0" y1="260" x2="665.0" y2="260.0" stroke="#d6bb88" stroke-opacity=".22"/><line x1="800.0" y1="260" x2="683.0865704891007" y2="192.50000000000006" stroke="#d6bb88" stroke-opacity=".22"/><line x1="800.0" y1="260" x2="732.5" y2="143.08657048910084" stroke="#d6bb88" stroke-opacity=".22"/><line x1="800.0" y1="260" x2="800.0" y2="125.0" stroke="#d6bb88" stroke-opacity=".22"/><line x1="800.0" y1="260" x2="867.5" y2="143.08657048910078" stroke="#d6bb88" stroke-opacity=".22"/><line x1="800.0" y1="260" x2="916.9134295108992" y2="192.49999999999994" stroke="#d6bb88" stroke-opacity=".22"/><circle cx="800.0" cy="260" r="135.0" fill="none" stroke="#d6bb88" stroke-width="1.5" stroke-opacity="0.5"/><circle cx="800.0" cy="260" r="85.5" fill="none" stroke="#d6bb88" stroke-width="1.5" stroke-opacity="0.38"/><circle cx="800.0" cy="260" r="40.5" fill="none" stroke="#d6bb88" stroke-width="1.5" stroke-opacity="0.26"/><circle cx="800.0" cy="260" r="54.0" fill="#d6bb88" opacity="0.42"/><circle cx="800.0" cy="260" r="25.2" fill="#24211e"/><rect x="252.66666666666669" y="180.0" width="28" height="700.0" fill="#24211e" opacity="0.18"/><rect x="246.66666666666669" y="160.0" width="40" height="14" fill="#d6bb88" opacity="0.28"/><rect x="519.3333333333334" y="180.0" width="28" height="700.0" fill="#24211e" opacity="0.18"/><rect x="513.3333333333334" y="160.0" width="40" height="14" fill="#d6bb88" opacity="0.28"/><rect x="786.0" y="180.0" width="28" height="700.0" fill="#24211e" opacity="0.18"/><rect x="780.0" y="160.0" width="40" height="14" fill="#d6bb88" opacity="0.28"/><rect x="1052.6666666666667" y="180.0" width="28" height="700.0" fill="#24211e" opacity="0.18"/><rect x="1046.6666666666667" y="160.0" width="40" height="14" fill="#d6bb88" opacity="0.28"/><rect x="1319.3333333333335" y="180.0" width="28" height="700.0" fill="#24211e" opacity="0.18"/><rect x="1313.3333333333335" y="160.0" width="40" height="14" fill="#d6bb88" opacity="0.28"/>
<rect width="1600" height="1000" fill="url(#vg)"/>
</svg>